<?xml version="1.0" encoding="UTF-8"?>
<svg id="Layer_1" data-name="Layer 1" xmlns="http://www.w3.org/2000/svg" viewBox="0 0 352.22 204.16">
  <defs>
    <style>
      .cls-1 {
        fill: none;
      }

      .cls-1, .cls-2, .cls-3, .cls-4, .cls-5, .cls-6 {
        stroke-width: 0px;
      }

      .cls-3 {
        fill: #f6437f;
      }

      .cls-4 {
        fill: #fa1972;
      }

      .cls-5 {
        fill: #fff;
      }

      .cls-6 {
        fill: red;
      }
    </style>
  </defs>
  <path class="cls-5" d="M127,17.83s32.35-3.68,37.68,10.16.7,35.38,4.01,38.61,14.29.01,7.3,26.62c-1.99,7.61-3.7,10.17-21.84,23.89-4.15,7.72-5.34,29.88-5.34,29.88l-13.09,5.84-21.27-19.83,12.55-115.17Z"/>
  <path class="cls-3" d="M142,8.83c-29-2-35.04-25.85-99.52,20.07-5.48,6.93-21.48,30.93-9.48,57.93-1,12,0,22-19,39s-10,42,3,54c0-25,3-23,3-23,0,0,2.28,25,7.14,25.5-.14-.5,21.92,39.44,104.89,4.97l4.97-3.47s8,3,13,2c0,0,35,0,27-30-5-11-11-23-14-24s-6-15-1-21l-1.74.06s-11.26,6.94-12.26,5.94,2.04.31.02,1.65-5.56,19.55-4.29,23.45-14-15.83-13.37-18.47.64-21.63,8.64-37.63c2-6-1-36,0-39s10-19,13-19,8,1,9,4c0,0,7,10,8,14,1.18.59-.09-8.72,0-10,.43-6.55-8.73-26.37-27-27Z"/>
  <path class="cls-1" d="M172.56,67c-.63-.48-1.13-1.03-1.48-1.71-.97-1.88-1.11-4.51-1.22-7.03,1.03,1.79,2.16,4.6,2.7,8.74Z"/>
  <path class="cls-1" d="M138.54,79.99c-1.27-2.07-2.01-4.47-2.01-7.02,0-2.1.51-4.09,1.39-5.88l.06.46c.15,1.34.36,2.66.46,4,.23,2.82.28,5.65.1,8.44Z"/>
  <path class="cls-1" d="M151.91,58.7c-4.26,0-8.11,1.61-10.9,4.22l.58,4.05c.16,1.43.37,2.85.48,4.27l.14,2.14.06,1.07v1.08s.02,2.15.02,2.15c-.02.71-.08,1.43-.11,2.15-.03.72-.08,1.44-.18,2.16-.07.56-.14,1.13-.22,1.69,2.71,2.21,6.25,3.56,10.13,3.56,8.48,0,15.37-6.4,15.37-14.27s-6.89-14.27-15.37-14.27ZM161.28,68.45l-.27,1.64c-.4-.07-.89-.05-1.46.04-.22.03-.44.08-.68.13-.17.04-.34.09-.53.14-.18.05-.37.1-.57.16-.65.2-1.34.45-2.06.74-.14.06-.29.12-.43.18-.68.28-1.39.59-2.09.93-.45.21-.89.43-1.34.66-.45.22-.89.46-1.33.69-.94.5-1.86,1.02-2.72,1.53-.59.35-1.14.7-1.66,1.03l-1.08-1.69h-.01s-1.12-1.74-1.12-1.74c.35-.23.96-.62,1.76-1.09.01,0,.01-.01.02-.01.77-.46,1.71-1,2.75-1.57.26-.14.52-.29.8-.43.24-.13.48-.25.74-.39.6-.3,1.22-.6,1.84-.89.59-.28,1.2-.55,1.81-.79,1.21-.51,2.44-.94,3.62-1.25h.01c1.62-.43,3.14-.62,4.4-.41l-.4,2.39Z"/>
  <path class="cls-1" d="M177.27,78.13c-.15-1.24-.38-2.46-.75-3.59s-.89-2.19-1.59-2.97c-.35-.39-.74-.7-1.16-.93l-.33-.16-.49-.22c-.32-.14-.64-.29-.96-.48-1.28-.68-2.56-1.79-3.3-3.18-.76-1.38-1.08-2.8-1.32-4.17-.2-1.36-.33-2.71-.4-4.03-.15-2.66-.19-5.27-.22-7.89v-1.95c-.02-.65-.01-1.32-.06-1.91l-.12-1.83c-.05-.61-.22-1.19-.31-1.79-.49-2.36-1.35-4.64-2.71-6.63-1.33-2-3.02-3.77-4.96-5.24-.97-.74-2.01-1.38-3.07-1.99-.55-.27-1.08-.56-1.64-.8-.28-.14-.58-.26-.87-.38-.29.21-.59.43-.87.64-.49.42-1.01.81-1.47,1.27-.48.44-.95.89-1.38,1.38-.45.48-.9.95-1.29,1.48-.4.52-.85,1-1.2,1.56l-1.1,1.63c-.34.57-.64,1.15-.97,1.72l-.48.86-.4.91c-2.19,4.79-3.24,10.1-3.32,15.44,0,.67-.09,1.33-.02,2l.24,4.02s0,.06.01.09c2.99-2.44,6.88-3.92,11.15-3.92,9.38,0,17.01,7.13,17.01,15.9s-7.63,15.9-17.01,15.9c-3.94,0-7.56-1.27-10.44-3.37-.19.96-.39,1.92-.65,2.87-.73,2.8-1.75,5.51-2.87,8.09-1.12,2.59-2.31,5.08-3.21,7.57-.25.62-.42,1.24-.61,1.87-.19.6-.36,1.32-.55,1.98-.36,1.34-.7,2.66-1,3.96-.57,2.61-.82,5.21-.55,7.8.28,2.58,1.08,5.12,2.11,7.56.58,1.21,1.11,2.43,1.83,3.58l1.02,1.75,1.14,1.69c1.32,1.93,2.76,3.8,4.26,5.62.11.13.21.26.32.39-.58-1.27-.88-2.66-.99-4.04,0-.14-.02-.27-.02-.41-.03-.57-.03-1.14,0-1.7.09-2.1.47-4.14,1.02-6.06.73-2.57,1.76-4.95,2.99-7.16.75-1.33,1.57-2.6,2.5-3.76-.23.08-.46.15-.69.22-.12.03-.25.07-.38.1-2.4.66-4.88,1.24-7.42,1.01v-.05l.03-.35c2.48.11,4.95-.59,7.32-1.36.07-.02.15-.05.22-.07,2.44-.85,4.82-1.87,7.14-3.02,4.62-2.32,9.04-5.09,13-8.36,1.98-1.63,3.83-3.42,5.4-5.38.77-.99,1.45-2.04,1.99-3.12.12-.27.27-.54.37-.82l.3-.83c.17-.61.34-1.23.5-1.85.62-2.48,1.06-5,1.3-7.54.24-2.53.28-5.08-.02-7.55ZM143,56.25s11.82-12.64,19.98-5.3l-19.98,5.3ZM149.6,117.11c.22-.25.46-.49.71-.72-.19.07-.38.14-.57.2-.04.17-.09.35-.14.52Z"/>
  <path class="cls-1" d="M173.33,173.22c-2.34,3.78-5.79,6.82-9.81,8.9-4.05,2.04-8.63,3.17-13.3,3.41-2.33.16-4.69.04-7.03-.27-2.08-.3-4.16-.79-6.13-1.6,2.57-2.02,5-4.22,7.19-6.68.93-.97,1.73-2.06,2.57-3.11.76-1.11,1.56-2.2,2.21-3.4,1.34-2.35,2.47-4.88,2.98-7.6.55-2.71.56-5.53.01-8.27-.6-2.72-1.79-5.26-3.21-7.61l-.04-.07-.1-.11c-1.12-1.16-2.23-2.35-3.31-3.54-.86-2.46-.8-4.73-.45-6.98.39-2.32,1.08-4.62,1.89-6.94.8-2.31,1.71-4.63,2.6-7,.8-2.1,1.59-4.22,2.29-6.47,1.07-.43,2.14-.87,3.19-1.36,2.38-1.09,4.7-2.29,6.96-3.63-1.03,1.45-1.88,3.03-2.53,4.71-.9,2.3-1.37,4.81-1.24,7.37.16,2.54.89,5.13,2.27,7.33.29.59.7,1.08,1.08,1.6.39.5.79,1.07,1.17,1.5.77.89,1.51,1.81,2.25,2.73,2.9,3.72,5.58,7.59,7.67,11.71,2.09,4.1,3.63,8.47,3.93,12.88.35,4.4-.74,8.76-3.11,12.5Z"/>
  <path class="cls-2" d="M179.5,85.92c-.31,2.65-.83,5.26-1.53,7.82-.18.65-.37,1.28-.57,1.92l-.37,1c-.14.33-.3.63-.45.95-.65,1.24-1.46,2.35-2.32,3.39-1.76,2.05-3.74,3.84-5.84,5.46-1.93,1.48-3.95,2.84-6.02,4.09.21-.4.41-.8.64-1.2-.42.49-.82,1.01-1.2,1.54-2.26,1.34-4.58,2.54-6.96,3.63-1.05.49-2.12.93-3.19,1.36-.46.18-.92.35-1.38.51-.19.07-.38.14-.57.2-.04.17-.09.35-.14.52-.49,1.8-1.02,3.53-1.55,5.24-.74,2.37-1.49,4.69-2.15,7-.66,2.32-1.24,4.62-1.56,6.94-.24,1.94-.32,3.9.12,5.97-.59-.67-1.17-1.35-1.75-2.03-.58-1.27-.88-2.66-.99-4.04,0-.14-.02-.27-.02-.41-.03-.57-.03-1.14,0-1.7.09-2.1.47-4.14,1.02-6.06.73-2.57,1.76-4.95,2.99-7.16.75-1.33,1.57-2.6,2.5-3.76-.23.08-.46.15-.69.22-.12.03-.25.07-.38.1-1.72.41-4.76.79-7.42.96l.03-.35c2.48.11,4.95-.59,7.32-1.36.07-.02.15-.05.22-.07,2.44-.85,4.82-1.87,7.14-3.02,4.62-2.32,9.04-5.09,13-8.36,1.98-1.63,3.83-3.42,5.4-5.38.77-.99,1.45-2.04,1.99-3.12.12-.27.27-.54.37-.82l.3-.83c.17-.61.34-1.23.5-1.85.62-2.48,1.06-5,1.3-7.54.24-2.53.28-5.08-.02-7.55-.15-1.24-.38-2.46-.75-3.59s-.89-2.19-1.59-2.97c-.35-.39-.74-.7-1.16-.93l-.33-.16-.49-.22c-.32-.14-.64-.29-.96-.48-1.28-.68-2.56-1.79-3.3-3.18-.76-1.38-1.08-2.8-1.32-4.17-.2-1.36-.33-2.71-.4-4.03-.15-2.66-.19-5.27-.22-7.89v-1.95c-.02-.65-.01-1.32-.06-1.91l-.12-1.83c-.05-.61-.22-1.19-.31-1.79-.49-2.36-1.35-4.64-2.71-6.63-1.33-2-3.02-3.77-4.96-5.24-.97-.74-2.01-1.38-3.07-1.99-.55-.27-1.08-.56-1.64-.8-.28-.14-.58-.26-.87-.38.22-.15.43-.3.62-.42l-1.37.15c.23.08.48.17.75.27-.29.21-.59.43-.87.64-.49.42-1.01.81-1.47,1.27-.48.44-.95.89-1.38,1.38-.45.48-.9.95-1.29,1.48-.4.52-.85,1-1.2,1.56l-1.1,1.63c-.34.57-.64,1.15-.97,1.72l-.48.86-.4.91c-2.19,4.79-3.24,10.1-3.32,15.44,0,.67-.09,1.33-.02,2l.24,4.02s0,.06.01.09c.04.64.17,1.28.25,1.93l.58,4.05c.16,1.43.37,2.85.48,4.27l.14,2.14.06,1.07v1.08s.02,2.15.02,2.15c-.02.71-.08,1.43-.11,2.15-.03.72-.08,1.44-.18,2.16-.07.56-.14,1.13-.22,1.69-.02.15-.03.3-.06.45-.08.46-.17.91-.25,1.37-.19.96-.39,1.92-.65,2.87-.73,2.8-1.75,5.51-2.87,8.09-1.12,2.59-2.31,5.08-3.21,7.57-.25.62-.42,1.24-.61,1.87-.19.6-.36,1.32-.55,1.98-.36,1.34-.7,2.66-1,3.96-.57,2.61-.82,5.21-.55,7.8.28,2.58,1.08,5.12,2.11,7.56.58,1.21,1.11,2.43,1.83,3.58l1.02,1.75,1.14,1.69c1.32,1.93,2.76,3.8,4.26,5.62.04.13.09.26.14.39.24.35.48.69.73,1.04h.01c.11.17.23.33.34.49.04.06.08.12.12.17.33.45.66.9.99,1.34-.04-.13-.07-.25-.1-.38.26.23.53.44.82.62-.03-.08-.05-.16-.08-.24,1.08,1.19,2.19,2.38,3.31,3.54l.1.11.04.07c1.42,2.35,2.61,4.89,3.21,7.61.55,2.74.54,5.56-.01,8.27-.51,2.72-1.64,5.25-2.98,7.6-.65,1.2-1.45,2.29-2.21,3.4-.84,1.05-1.64,2.14-2.57,3.11-2.19,2.46-4.62,4.66-7.19,6.68-.24-.1-.49-.19-.72-.3.19.14.39.27.59.4-1.59,1.24-3.23,2.42-4.9,3.54-4.42,2.98-9.13,5.49-13.98,7.66-4.88,2.11-9.89,3.97-15.1,5.15-2.61.58-5.25,1.04-7.96,1.16l-7.92.35c-5.29.2-10.6.26-15.91.03-5.31-.21-10.62-.75-15.87-1.77-5.24-1.02-10.42-2.61-15.26-5.04-1.23-.57-2.37-1.31-3.54-1.99-.6-.32-1.12-.76-1.69-1.13-.55-.41-1.13-.76-1.65-1.2-1.03-.89-2.14-1.7-3.06-2.71l-1.45-1.46-1.3-1.58c-.92-1.02-1.61-2.22-2.39-3.34-.41-.56-.68-1.19-1.02-1.79l-.96-1.81c-.51-1.27-1.09-2.52-1.53-3.81l-.61-1.96c-.19-.65-.42-1.3-.53-1.97l-.43-2c-.14-.66-.3-1.33-.36-2-.15-1.35-.37-2.7-.46-4.05l-.09-2.05c-.39,2.05-.6,4.16-.67,6.27-.08,2.55.04,5.1.39,7.61.36,2.51.92,4.99,1.84,7.27l.75,1.67.04.1c.08.16.17.38.2.61.09.47,0,1.02-.25,1.43-.24.42-.59.73-1.02.91-.42.19-.97.25-1.48.08-.26-.08-.48-.2-.67-.35-.16-.11-.34-.32-.34-.33l-.17-.19-.33-.38c-.89-1.02-1.73-2.07-2.57-3.12-1.67-2.12-3.23-4.32-4.7-6.59-2.92-4.53-5.49-9.34-7.36-14.49-1.84-5.13-3.01-10.7-2.5-16.39.26-2.83.98-5.66,2.2-8.28,1.21-2.61,2.94-5,4.87-7.02,3.64-3.85,7.34-7.64,10.92-11.47,1.77-1.93,3.54-3.85,5.15-5.84.84-.98,1.56-2.01,2.33-3.03.69-1.04,1.43-2.06,2.01-3.14,1.2-2.15,2.15-4.38,2.64-6.74s.59-4.82.47-7.29c-.17-2.39-.7-4.95-1.24-7.51-.54-2.57-1.11-5.18-1.58-7.83-.94-5.3-1.51-10.77-1.19-16.27.05-1.38.23-2.75.38-4.12.23-1.36.41-2.73.75-4.07.58-2.71,1.47-5.34,2.53-7.89,2.18-5.09,5.18-9.8,8.82-13.88,3.62-4.09,7.75-7.67,12.11-10.85l3.32-2.31,3.41-2.15c1.13-.73,2.32-1.35,3.48-2.03l1.75-.99,1.79-.93c4.76-2.47,9.7-4.63,14.82-6.32C90.07.76,101.01-.76,111.75.36c2.68.25,5.34.68,7.97,1.23,2.63.55,5.23,1.23,7.79,2.04,2.55.81,5.06,1.73,7.54,2.69l3.68,1.43c.6.22,1.21.46,1.8.63.53.18,1.02.27,1.46.32-.13.07-.26.13-.38.21l.57-.18c-.06,0-.13-.02-.19-.03,1.1-.55,2.2-.65,3.24-.67,1.17-.01,2.3.14,3.39.4,2.19.51,4.25,1.4,6.15,2.52,3.8,2.27,6.94,5.48,9.3,9.13,2.34,3.68,3.92,7.77,4.86,11.97.76,3.42.71,7.7.62,11.48-.03-.18-.06-.35-.09-.52-.13-3.69-.49-7.12-1.41-10.75-1.05-4.08-2.72-8-5.08-11.45-2.37-3.43-5.45-6.36-9.06-8.36-1.8-.98-3.73-1.73-5.7-2.15-.98-.21-1.98-.31-2.94-.29-.95.03-1.91.23-2.52.61l-.28.19h-.29c-.85-.05-1.57-.21-2.23-.4-.69-.18-1.32-.41-1.96-.63l-3.74-1.35c-2.47-.9-4.94-1.74-7.45-2.46-2.5-.73-5.04-1.33-7.59-1.8-2.55-.48-5.13-.82-7.71-1-10.34-.8-20.77.76-30.56,4.16-4.9,1.7-9.65,3.85-14.22,6.32-4.56,2.49-9.03,5.19-13.16,8.31-4.13,3.1-7.99,6.55-11.31,10.42-3.36,3.85-6.09,8.18-8.03,12.83-.96,2.33-1.75,4.73-2.26,7.19-.31,1.23-.46,2.48-.66,3.73-.13,1.25-.29,2.51-.32,3.77-.28,5.07.3,10.18,1.21,15.28.45,2.55,1,5.11,1.55,7.71.53,2.6,1.1,5.24,1.32,8.12.13,2.81.02,5.66-.57,8.48-.6,2.83-1.73,5.52-3.12,7.96-.68,1.25-1.48,2.38-2.26,3.54-.83,1.08-1.65,2.2-2.53,3.23-1.73,2.1-3.56,4.05-5.38,6.01-3.67,3.86-7.39,7.6-11.04,11.4-1.73,1.79-3.14,3.72-4.18,5.91-1.04,2.16-1.66,4.52-1.9,6.95-.49,4.87.49,9.92,2.17,14.71,1.69,4.81,4.09,9.41,6.86,13.77.82,1.29,1.68,2.55,2.57,3.79-.15-.81-.28-1.62-.39-2.43-.33-2.73-.43-5.47-.31-8.2.13-2.73.46-5.46,1.12-8.16.18-.67.33-1.35.57-2.01l.34-1.01.42-1c.13-.33.28-.66.47-.99l.28-.49.13-.25c.07-.1.01-.08.3-.43.47-.57,1.37-.82,2.04-.59.67.17,1.3.81,1.41,1.56.04.18.04.36.03.5v.13s-.04.72-.04.72c-.39,5.16-.14,10.36.93,15.36.1.64.3,1.24.47,1.86l.52,1.84c.39,1.22.9,2.38,1.35,3.58l.86,1.7c.3.56.54,1.16.91,1.68.7,1.05,1.31,2.18,2.15,3.15l1.18,1.5,1.32,1.38c.84.97,1.86,1.74,2.81,2.6.48.43,1.03.77,1.53,1.16.53.37,1.02.79,1.58,1.11,1.1.66,2.17,1.39,3.34,1.94,4.57,2.41,9.55,4.06,14.66,5.15,5.11,1.09,10.33,1.74,15.57,2.01,5.25.27,10.52.25,15.79.08l7.92-.29c2.59-.09,5.17-.53,7.72-1.08,2.56-.55,5.08-1.29,7.56-2.14,2.49-.81,4.92-1.83,7.32-2.88,4.78-2.17,9.42-4.67,13.76-7.62,4.32-2.95,8.39-6.3,11.81-10.23.89-.95,1.63-2.01,2.43-3.03.71-1.08,1.47-2.13,2.06-3.28,1.22-2.25,2.21-4.64,2.62-7.14.43-2.49.38-5.03-.16-7.47-.6-2.41-1.71-4.66-3.04-6.77l.09.09-.14-.18s.04.06.05.09c-3.93-3.92-7.74-8.01-11.01-12.58l-1.23-1.74-1.12-1.83c-.78-1.19-1.39-2.5-2.04-3.79-1.19-2.63-2.14-5.42-2.52-8.36-.39-2.94-.16-5.95.4-8.77.29-1.4.61-2.79.95-4.13.17-.68.3-1.32.51-2.04.2-.71.38-1.43.63-2.11.94-2.75,2.15-5.29,3.19-7.81,1.05-2.52,1.96-5.04,2.6-7.63.42-1.65.72-3.33.92-5.02.1-.82.18-1.65.24-2.48.18-2.79.13-5.62-.1-8.44-.1-1.34-.31-2.66-.46-4l-.06-.46-.38-2.59-.17-1.14c-.09-.7-.23-1.39-.27-2.11l-.13-2.15-.11-2.15c-.07-.71.03-1.43.03-2.15.12-5.75,1.28-11.56,3.75-16.86l.45-1,.53-.95c.37-.64.71-1.28,1.09-1.9l1.24-1.82c.4-.61.9-1.15,1.35-1.73.44-.58.95-1.11,1.45-1.65.49-.55,1.03-1.05,1.57-1.55.53-.51,1.13-.96,1.69-1.44.62-.46,1.17-.88,1.93-1.32l.66-.39.7.24c1.45.51,2.62,1.1,3.86,1.77,1.2.7,2.37,1.44,3.46,2.31,2.19,1.7,4.14,3.76,5.66,6.12,1.56,2.35,2.54,5.05,3.07,7.79.03.2.07.39.11.59.02.47.03.94.04,1.42v1.63c.01-.8.03-1.65.05-2.53.06.31.11.63.13.95l.11,2.08c.05.71.03,1.34.03,1.99v1.96c-.02,1.6-.02,3.2-.01,4.79.01.99.02,1.97.05,2.95h0c.11,2.53.25,5.16,1.22,7.04.35.68.85,1.23,1.48,1.71.23.17.47.33.73.48.24.15.51.28.78.41l.24.12.7.35c.72.4,1.34.94,1.85,1.53,1.01,1.2,1.6,2.56,2.02,3.91.41,1.35.63,2.71.77,4.07.26,2.71.15,5.4-.15,8.05Z"/>
  <path class="cls-2" d="M147.07,116.67c-2.37.77-4.84,1.47-7.32,1.36l-.03.35c-1.59.11-3.05.14-4,.05l.03-.4c2.49.11,8.72-.59,11.32-1.36Z"/>
  <path class="cls-6" d="M169.5,46.06v-1.63c-.01-.48-.02-.95-.04-1.42.03.17.06.34.09.52-.02.88-.04,1.73-.05,2.53Z"/>
  <path class="cls-6" d="M142.18,8.73l-.57.18c.12-.08.25-.14.38-.21.06.01.13.03.19.03Z"/>
  <path class="cls-4" d="M143.26,141.27c-.25-.35-.49-.69-.73-1.04-.05-.13-.1-.26-.14-.39.11.13.21.26.32.39.02.03.03.07.05.11.15.32.32.63.5.93Z"/>
  <path class="cls-4" d="M144.72,143.27c-.33-.44-.66-.89-.99-1.34.27.35.56.67.88.95,0,.01.01.01.01.01.03.13.06.25.1.38Z"/>
  <path class="cls-4" d="M169.5,46.06v-1.63c-.01-.48-.02-.95-.04-1.42.03.17.06.34.09.52-.02.88-.04,1.73-.05,2.53Z"/>
  <path class="cls-6" d="M153.63,27.57c-.19.12-.4.27-.62.42-.27-.1-.52-.19-.75-.27l1.37-.15Z"/>
  <path class="cls-6" d="M147.11,148.37l-.09-.09s-.03-.06-.05-.09l.14.18Z"/>
  <path class="cls-6" d="M144.62,142.89c.03.13.06.25.1.38-.33-.44-.66-.89-.99-1.34-.04-.05-.08-.11-.12-.17-.11-.16-.23-.32-.34-.48h-.01c-.25-.36-.49-.7-.73-1.05-.05-.13-.1-.26-.14-.39-.39-1.16-.6-2.41-.68-3.65-.01-.14-.01-.27-.01-.41,0,.14.01.27.02.41.11,1.38.41,2.77.99,4.04.58.68,1.16,1.36,1.75,2.03.05.21.1.41.15.62,0,.01.01.01.01.01Z"/>
  <path class="cls-6" d="M145.44,143.51c-.29-.18-.56-.39-.82-.62,0,0-.01,0-.01-.01-.32-.28-.61-.6-.88-.95-.04-.05-.08-.11-.12-.17-.11-.16-.23-.32-.34-.48h-.01c-.18-.31-.35-.62-.5-.94-.02-.04-.03-.08-.05-.11.58.68,1.16,1.36,1.75,2.03.3.34.6.68.9,1.01.03.08.05.16.08.24Z"/>
  <path class="cls-2" d="M179.81,168.22c-.69,2.54-1.8,4.95-3.24,7.1-2.85,4.31-7.03,7.71-11.7,9.68-4.66,2.03-9.72,2.76-14.65,2.53-2.46-.14-4.9-.5-7.26-1.16-2.12-.61-4.2-1.42-6.03-2.61.04-.03.08-.07.13-.1,1.97.81,4.05,1.3,6.13,1.6,2.34.31,4.7.43,7.03.27,4.67-.24,9.25-1.37,13.3-3.41,4.02-2.08,7.47-5.12,9.81-8.9,2.37-3.74,3.46-8.1,3.11-12.5-.3-4.41-1.84-8.78-3.93-12.88-2.09-4.12-4.77-7.99-7.67-11.71-.74-.92-1.48-1.84-2.25-2.73-.38-.43-.78-1-1.17-1.5-.38-.52-.79-1.01-1.08-1.6-1.38-2.2-2.11-4.79-2.27-7.33-.13-2.56.34-5.07,1.24-7.37.65-1.68,1.5-3.26,2.53-4.71.19-.11.37-.23.56-.34-.89,1.73-1.58,3.54-2.02,5.39-.54,2.27-.71,4.61-.33,6.82.37,2.21,1.17,4.33,2.53,6.09.27.48.69.87,1.04,1.3.39.42.68.82,1.13,1.27.86.87,1.69,1.76,2.51,2.67,3.28,3.62,6.26,7.57,8.66,11.94,2.39,4.36,4.21,9.21,4.59,14.41.16,2.59-.02,5.24-.7,7.78Z"/>
  <path class="cls-6" d="M137.06,183.66s-.09.07-.13.1c-.2-.13-.4-.26-.59-.4.23.11.48.2.72.3Z"/>
  <path class="cls-2" d="M163.04,109.35c-.23.4-.43.8-.64,1.2-.19.11-.37.23-.56.34.38-.53.78-1.05,1.2-1.54Z"/>
  <path class="cls-2" d="M168.92,72.97c0,8.77-7.63,15.9-17.01,15.9-3.94,0-7.56-1.27-10.44-3.37.08-.46.17-.91.25-1.37.03-.15.04-.3.06-.45,2.71,2.21,6.25,3.56,10.13,3.56,8.48,0,15.37-6.4,15.37-14.27s-6.89-14.27-15.37-14.27c-4.26,0-8.11,1.61-10.9,4.22-.08-.65-.21-1.29-.25-1.93,2.99-2.44,6.88-3.92,11.15-3.92,9.38,0,17.01,7.13,17.01,15.9Z"/>
  <path class="cls-2" d="M174.31,68.01l-.24-.12c-.27-.13-.54-.26-.78-.41-.26-.15-.5-.31-.73-.48-.54-4.14-1.67-6.95-2.7-8.74h0c-.03-.99-.04-1.97-.05-2.96,1.39,1.63,3.79,5.43,4.5,12.71Z"/>
  <path class="cls-2" d="M161.28,68.46h0c.23-1.35-.93-2.55-2.28-2.35-4.44.67-10.23,3.84-13.29,5.68-.98.59-1.28,1.87-.66,2.84h0c.58.92,1.82,1.22,2.75.67,3.78-2.25,8.77-4.68,11.75-5.16.88-.14,1.58-.8,1.73-1.68Z"/>
  <path class="cls-2" d="M143,56.25l19.98-5.3c-8.16-7.34-19.98,5.3-19.98,5.3Z"/>
  <rect class="cls-5" x="188" y="164.83" width="164" height="22"/>
  <g>
    <path class="cls-3" d="M214.52,119.76h10.59v31.78h-5.3v5.3h-26.48v-5.3h-5.3v-10.59h10.59v10.59h15.89v-31.78Z"/>
    <path class="cls-3" d="M241,119.76h15.89v5.3h5.3v5.3h5.3v26.48h-10.59v-10.59h-15.89v10.59h-10.59v-26.48h5.3v-5.3h5.3v-5.3ZM246.3,125.06v5.3h-5.3v10.59h15.89v-10.59h-5.3v-5.3h-5.3Z"/>
    <path class="cls-3" d="M272.78,119.76h10.59v5.3h5.3v5.3h5.3v5.3h5.3v-15.89h10.59v37.07h-10.59v-5.3h-5.3v-5.3h-5.3v-5.3h-5.3v15.89h-10.59v-37.07Z"/>
    <path class="cls-3" d="M315.15,119.76h37.07v5.3h-26.48v10.59h21.18v5.3h-21.18v10.59h26.48v5.3h-37.07v-37.07Z"/>
  </g>
  <g>
    <path class="cls-2" d="M203.09,172.07h-3.78v9.86h-2.64v-9.86h-4.13v-2.44h10.55v2.44Z"/>
    <path class="cls-2" d="M214.69,181.93h-2.64v-5.64h-5.27v5.64h-2.64v-12.3h2.64v4.22h5.27v-4.22h2.64v12.3Z"/>
    <path class="cls-2" d="M225.42,181.93h-7.91c-.48,0-.89-.17-1.24-.52s-.52-.76-.52-1.24v-8.79c0-.48.17-.89.52-1.24s.76-.52,1.24-.52h7.91v2.44h-7.03v1.78h7.03v2.44h-7.03v3.2h7.03v2.44Z"/>
    <path class="cls-2" d="M233.5,181.93h-2.64v-12.3h2.64v12.3Z"/>
    <path class="cls-2" d="M244.22,181.93h-7.91c-.48,0-.89-.17-1.24-.52s-.52-.76-.52-1.24v-10.55h2.64v9.86h7.03v2.44Z"/>
    <path class="cls-2" d="M254.95,181.93h-7.91c-.48,0-.89-.17-1.24-.52s-.52-.76-.52-1.24v-10.55h2.64v9.86h7.03v2.44Z"/>
    <path class="cls-2" d="M266.55,180.18c0,.48-.17.89-.52,1.24s-.76.52-1.24.52h-7.03c-.48,0-.89-.17-1.24-.52s-.52-.76-.52-1.24v-10.55h2.64v9.86h5.27v-9.86h2.64v10.55Z"/>
    <path class="cls-2" d="M278.15,180.18c0,.48-.17.89-.52,1.24s-.76.52-1.24.52h-8.79v-2.44h7.91v-3.2h-6.15c-.48,0-.89-.17-1.24-.52s-.52-.76-.52-1.24v-3.16c0-.48.17-.89.52-1.24s.76-.52,1.24-.52h8.79v2.44h-7.91v1.78h6.15c.48,0,.89.17,1.24.52s.52.76.52,1.24v4.57Z"/>
    <path class="cls-2" d="M289.75,172.07h-3.78v9.86h-2.64v-9.86h-4.13v-2.44h10.55v2.44Z"/>
    <path class="cls-2" d="M301.35,181.93h-2.64v-5.64h-5.27v5.64h-2.64v-12.3h8.79c.48,0,.89.17,1.24.52s.52.76.52,1.24v1.93c0,.48-.17.89-.52,1.24s-.76.52-1.24.52c.48,0,.89.17,1.24.52s.52.76.52,1.24v5.1ZM298.71,173.85v-1.78h-5.27v1.78h5.27Z"/>
    <path class="cls-2" d="M315.06,181.93h-3.01l-1.11-2.81h-4.95l-1.12,2.81h-2.99l4.92-12.3h3.34l4.92,12.3ZM309.97,176.68l-1.51-3.77-1.49,3.77h3Z"/>
    <path class="cls-2" d="M323.27,172.07h-3.78v9.86h-2.64v-9.86h-4.13v-2.44h10.55v2.44Z"/>
    <path class="cls-2" d="M334.87,180.18c0,.48-.17.89-.52,1.24s-.76.52-1.24.52h-7.03c-.48,0-.89-.17-1.24-.52s-.52-.76-.52-1.24v-8.79c0-.48.17-.89.52-1.24s.76-.52,1.24-.52h7.03c.48,0,.89.17,1.24.52s.52.76.52,1.24v8.79ZM332.23,179.49v-7.42h-5.27v7.42h5.27Z"/>
    <path class="cls-2" d="M346.47,181.93h-2.64v-5.64h-5.27v5.64h-2.64v-12.3h8.79c.48,0,.89.17,1.24.52s.52.76.52,1.24v1.93c0,.48-.17.89-.52,1.24s-.76.52-1.24.52c.48,0,.89.17,1.24.52s.52.76.52,1.24v5.1ZM343.84,173.85v-1.78h-5.27v1.78h5.27Z"/>
  </g>
  <path class="cls-2" d="M51,35.83c-1.03,1.89-1.75,3.88-2.38,5.86-.56,2.02-1.05,4.01-1.35,6.05-.12,1.02-.35,2.01-.4,3.04l-.24,3.05c0,2.05-.12,4.06.06,6.1.4,8.11,2.18,16.11,4.75,23.9.59,1.96,1.37,3.83,2.04,5.76.34.97.63,1.86,1.12,3.06.24.55.41,1.17.58,1.78.19.6.31,1.22.41,1.85.87,5.02-.23,9.96-2.13,14.12-1.91,4.2-4.55,7.84-7.51,11.07-1.49,1.61-3.06,3.12-4.72,4.52-1.66,1.4-3.38,2.72-5.22,3.85,2.63-3.41,5.06-6.87,7.19-10.44,2.13-3.56,3.97-7.24,5.12-10.97,1.15-3.73,1.57-7.5.75-10.86-.09-.42-.2-.84-.35-1.24-.13-.41-.25-.81-.46-1.23-.35-.75-.77-1.86-1.18-2.88l-1.18-3.1c-.37-1.04-.83-2.06-1.12-3.12-2.74-8.32-4.22-17.25-3.58-26.15.09-2.22.51-4.43.88-6.61.27-1.09.54-2.17.83-3.24.27-1.07.7-2.11,1.06-3.16,1.59-4.11,3.8-8.09,7.04-11Z"/>
  <path class="cls-2" d="M18.5,152.33c-.05,2.12.11,4.22.37,6.31.24,2.09.61,4.15,1.08,6.19.96,4.06,2.36,8,4.29,11.63,3.81,7.29,9.84,13.19,17.1,16.76,3.61,1.82,7.5,3.07,11.46,3.98l1.49.35,1.51.25c1.01.15,2,.38,3.04.47,2.05.2,4.15.47,6.18.62,8.24.63,16.61.54,24.84-.35,8.24-.82,16.4-2.45,24.16-5.16,7.78-2.65,15.09-6.55,21.44-11.71,3.2-2.62,6.2-5.47,8.82-8.6,2.61-3.11,4.84-6.59,5.89-10.43.54-1.91.77-3.9.62-5.89-.13-1.99-.71-3.95-1.51-5.84-.8-1.89-1.91-3.67-3.11-5.39-1.18-1.74-2.56-3.36-3.67-5.17,1.31,1.66,2.87,3.1,4.27,4.71,1.39,1.61,2.71,3.32,3.76,5.24,1.05,1.91,1.85,4.01,2.19,6.22.35,2.21.28,4.49-.16,6.69-.9,4.42-3.13,8.37-5.7,11.89-2.59,3.53-5.65,6.64-8.85,9.53-6.47,5.89-14.28,10.16-22.39,13.21-8.16,3.01-16.69,4.75-25.25,5.68-8.58.83-17.19.9-25.79.09-8.47-.85-17.36-2.54-25.07-6.93-3.84-2.16-7.43-4.86-10.37-8.15-2.95-3.28-5.35-7-7.11-10.98-1.71-4-2.87-8.19-3.44-12.44-.56-4.24-.67-8.54-.1-12.74Z"/>
</svg>